# xmcd
#
# Track frame offsets: 
#        150
#        22024
#        43950
#        67039
#        82717
#        97682
#        118542
#        144893
#        162509
#        179222
#        196459
#        218150
#        239969
#        260029
#        281318
#        302412
#        325104
#
# Disc length: 4469 seconds
#
# Revision: 1
# Processed by: cddbd v1.5.2PL0 Copyright (c) Steve Scherf et al.
# Submitted via: ExactAudioCopy v1.1
#
DISCID=f7117311
DTITLE=Ryszard Rynkowski - Inny Nie Będę
DYEAR=1998
DGENRE=Blues
TTITLE0=Wypijmy Za Błędy
TTITLE1=Weźcie Sobie Chłopaki Ten Kraj
TTITLE2=Ach, Te Baby
TTITLE3=Czemu Nie Tańczę Na Ulicach
TTITLE4=Swobodny Blues
TTITLE5=Nie Budźcie Marzeń Ze Snu
TTITLE6=Szczęśliwej Drogi Już Czas
TTITLE7=Inny Nie Będę
TTITLE8=Bez Miłości
TTITLE9=Zwierzenia Ryśka, Czyli Jedzie Pociąg
TTITLE10=Wszystko Już Było
TTITLE11=Wyspa
TTITLE12=Śpiewająco
TTITLE13=Natalie
TTITLE14=Wznieś Serce
TTITLE15=Mrok
TTITLE16=Życie Jest Nowelą
EXTD=
EXTT0=
EXTT1=
EXTT2=
EXTT3=
EXTT4=
EXTT5=
EXTT6=
EXTT7=
EXTT8=
EXTT9=
EXTT10=
EXTT11=
EXTT12=
EXTT13=
EXTT14=
EXTT15=
EXTT16=
PLAYORDER=
